# xmcd
# 
# Track frame offsets:
#     150
#     23387
#     44785
#     62000
#     80382
#     102232
#     125227
#     154675
#     182780
#     203470
#     218727
#     243285
# 
# Disc length: 3662
# 
# Revision: 7
# Processed by: cddbd v1.5.2PL0 Copyright (c) Steve Scherf et al.
# Submitted via: fre:ac v1.1beta1pre2
# 
DISCID=9c0e4c0c
DTITLE=The Yellow Monkey - juguar hard pain 1944-1994
DYEAR=1994
DGENRE=J-Rock
TTITLE0=SECOND CRY
TTITLE1=Fine Fine Fine
TTITLE2=AHENな飴玉
TTITLE3=ROCK STAR
TTITLE4=薔薇娼婦麗奈
TTITLE5=街の灯
TTITLE6=Red Light
TTITLE7=セルリアの丘
TTITLE8=悲しきASIAN BOY
TTITLE9=赤裸々GO! GO! GO! 
TTITLE10=遥かな世界
TTITLE11=Merry X'mas
EXTD=YEAR: 1994
EXTT0=
EXTT1=
EXTT2=
EXTT3=
EXTT4=
EXTT5=
EXTT6=
EXTT7=
EXTT8=
EXTT9=
EXTT10=
EXTT11=
PLAYORDER=
